<mxfile host="app.diagrams.net" modified="2023-04-07T04:07:32.205Z" agent="Mozilla/5.0 (Windows NT 10.0; Win64; x64) AppleWebKit/537.36 (KHTML, like Gecko) Chrome/111.0.0.0 Safari/537.36" etag="ToSdkW3vbUEQpgXsc8H1" version="21.1.5" type="device">
  <diagram name="페이지-1" id="sZguHrLjinIvU7yeNE8O">
    <mxGraphModel dx="819" dy="422" grid="1" gridSize="10" guides="0" tooltips="1" connect="1" arrows="1" fold="1" page="1" pageScale="1" pageWidth="827" pageHeight="1169" math="0" shadow="0">
      <root>
        <mxCell id="0" />
        <mxCell id="1" parent="0" />
        <mxCell id="MgUb1Cj900mByKfgI5SN-7" style="edgeStyle=orthogonalEdgeStyle;rounded=0;orthogonalLoop=1;jettySize=auto;html=1;entryX=0.5;entryY=0;entryDx=0;entryDy=0;" edge="1" parent="1" source="MgUb1Cj900mByKfgI5SN-1" target="MgUb1Cj900mByKfgI5SN-3">
          <mxGeometry relative="1" as="geometry" />
        </mxCell>
        <mxCell id="MgUb1Cj900mByKfgI5SN-1" value="시작" style="strokeWidth=2;html=1;shape=mxgraph.flowchart.start_2;whiteSpace=wrap;" vertex="1" parent="1">
          <mxGeometry x="381" y="20" width="66" height="60" as="geometry" />
        </mxCell>
        <mxCell id="MgUb1Cj900mByKfgI5SN-8" style="edgeStyle=orthogonalEdgeStyle;rounded=0;orthogonalLoop=1;jettySize=auto;html=1;entryX=0.536;entryY=-0.015;entryDx=0;entryDy=0;entryPerimeter=0;" edge="1" parent="1" source="MgUb1Cj900mByKfgI5SN-3" target="MgUb1Cj900mByKfgI5SN-4">
          <mxGeometry relative="1" as="geometry" />
        </mxCell>
        <mxCell id="MgUb1Cj900mByKfgI5SN-3" value="&lt;div style=&quot;&quot;&gt;&lt;br&gt;&lt;/div&gt;" style="verticalLabelPosition=bottom;verticalAlign=top;html=1;shape=hexagon;perimeter=hexagonPerimeter2;arcSize=6;size=0.22093023255813954;align=center;" vertex="1" parent="1">
          <mxGeometry x="371" y="120" width="86" height="50" as="geometry" />
        </mxCell>
        <mxCell id="MgUb1Cj900mByKfgI5SN-9" style="edgeStyle=orthogonalEdgeStyle;rounded=0;orthogonalLoop=1;jettySize=auto;html=1;entryX=0.5;entryY=0;entryDx=0;entryDy=0;" edge="1" parent="1" source="MgUb1Cj900mByKfgI5SN-4" target="MgUb1Cj900mByKfgI5SN-6">
          <mxGeometry relative="1" as="geometry" />
        </mxCell>
        <mxCell id="MgUb1Cj900mByKfgI5SN-4" value="a,b 입력" style="shape=parallelogram;html=1;strokeWidth=2;perimeter=parallelogramPerimeter;whiteSpace=wrap;rounded=1;arcSize=12;size=0.23;" vertex="1" parent="1">
          <mxGeometry x="361" y="200" width="100" height="60" as="geometry" />
        </mxCell>
        <mxCell id="MgUb1Cj900mByKfgI5SN-5" value="a,b,avg" style="text;html=1;strokeColor=none;fillColor=none;align=center;verticalAlign=middle;whiteSpace=wrap;rounded=0;" vertex="1" parent="1">
          <mxGeometry x="384" y="130" width="60" height="30" as="geometry" />
        </mxCell>
        <mxCell id="MgUb1Cj900mByKfgI5SN-11" style="edgeStyle=orthogonalEdgeStyle;rounded=0;orthogonalLoop=1;jettySize=auto;html=1;entryX=0.5;entryY=0;entryDx=0;entryDy=0;" edge="1" parent="1" source="MgUb1Cj900mByKfgI5SN-6" target="MgUb1Cj900mByKfgI5SN-10">
          <mxGeometry relative="1" as="geometry" />
        </mxCell>
        <mxCell id="MgUb1Cj900mByKfgI5SN-6" value="avg = (a+b)/2" style="rounded=0;whiteSpace=wrap;html=1;" vertex="1" parent="1">
          <mxGeometry x="351" y="300" width="120" height="60" as="geometry" />
        </mxCell>
        <mxCell id="MgUb1Cj900mByKfgI5SN-12" style="edgeStyle=orthogonalEdgeStyle;rounded=0;orthogonalLoop=1;jettySize=auto;html=1;exitX=1;exitY=0.5;exitDx=0;exitDy=0;" edge="1" parent="1" source="MgUb1Cj900mByKfgI5SN-10">
          <mxGeometry relative="1" as="geometry">
            <mxPoint x="550" y="520" as="targetPoint" />
          </mxGeometry>
        </mxCell>
        <mxCell id="MgUb1Cj900mByKfgI5SN-14" value="Yes" style="edgeLabel;html=1;align=center;verticalAlign=middle;resizable=0;points=[];" vertex="1" connectable="0" parent="MgUb1Cj900mByKfgI5SN-12">
          <mxGeometry x="-0.1188" y="2" relative="1" as="geometry">
            <mxPoint as="offset" />
          </mxGeometry>
        </mxCell>
        <mxCell id="MgUb1Cj900mByKfgI5SN-16" style="edgeStyle=orthogonalEdgeStyle;rounded=0;orthogonalLoop=1;jettySize=auto;html=1;exitX=0;exitY=0.5;exitDx=0;exitDy=0;" edge="1" parent="1" source="MgUb1Cj900mByKfgI5SN-10">
          <mxGeometry relative="1" as="geometry">
            <mxPoint x="280" y="520" as="targetPoint" />
          </mxGeometry>
        </mxCell>
        <mxCell id="MgUb1Cj900mByKfgI5SN-21" value="No" style="edgeLabel;html=1;align=center;verticalAlign=middle;resizable=0;points=[];" vertex="1" connectable="0" parent="MgUb1Cj900mByKfgI5SN-16">
          <mxGeometry x="-0.446" y="-1" relative="1" as="geometry">
            <mxPoint as="offset" />
          </mxGeometry>
        </mxCell>
        <mxCell id="MgUb1Cj900mByKfgI5SN-10" value="avg &amp;gt;= 95" style="rhombus;whiteSpace=wrap;html=1;" vertex="1" parent="1">
          <mxGeometry x="346" y="400" width="130" height="80" as="geometry" />
        </mxCell>
        <mxCell id="MgUb1Cj900mByKfgI5SN-20" style="edgeStyle=orthogonalEdgeStyle;rounded=0;orthogonalLoop=1;jettySize=auto;html=1;entryX=0.5;entryY=0;entryDx=0;entryDy=0;" edge="1" parent="1" source="MgUb1Cj900mByKfgI5SN-15" target="MgUb1Cj900mByKfgI5SN-18">
          <mxGeometry relative="1" as="geometry" />
        </mxCell>
        <mxCell id="MgUb1Cj900mByKfgI5SN-15" value="Very Good" style="shape=document;whiteSpace=wrap;html=1;boundedLbl=1;" vertex="1" parent="1">
          <mxGeometry x="500" y="520" width="100" height="50" as="geometry" />
        </mxCell>
        <mxCell id="MgUb1Cj900mByKfgI5SN-19" style="edgeStyle=orthogonalEdgeStyle;rounded=0;orthogonalLoop=1;jettySize=auto;html=1;entryX=0.5;entryY=0;entryDx=0;entryDy=0;" edge="1" parent="1" source="MgUb1Cj900mByKfgI5SN-17" target="MgUb1Cj900mByKfgI5SN-18">
          <mxGeometry relative="1" as="geometry" />
        </mxCell>
        <mxCell id="MgUb1Cj900mByKfgI5SN-17" value="Just Good" style="shape=document;whiteSpace=wrap;html=1;boundedLbl=1;" vertex="1" parent="1">
          <mxGeometry x="230" y="520" width="110" height="50" as="geometry" />
        </mxCell>
        <mxCell id="MgUb1Cj900mByKfgI5SN-18" value="종료" style="ellipse;whiteSpace=wrap;html=1;aspect=fixed;" vertex="1" parent="1">
          <mxGeometry x="367" y="585" width="80" height="80" as="geometry" />
        </mxCell>
      </root>
    </mxGraphModel>
  </diagram>
</mxfile>
